<mxfile host="app.diagrams.net" agent="Mozilla/5.0 (Windows NT 10.0; Win64; x64) AppleWebKit/537.36 (KHTML, like Gecko) Chrome/136.0.0.0 Safari/537.36 Edg/136.0.0.0" version="27.0.5">
  <diagram name="第 1 页" id="w6OoeqFrZDwgIb7guYN0">
    <mxGraphModel dx="1182" dy="655" grid="1" gridSize="10" guides="1" tooltips="1" connect="1" arrows="1" fold="1" page="1" pageScale="1" pageWidth="1169" pageHeight="827" background="none" math="0" shadow="1">
      <root>
        <mxCell id="0" />
        <mxCell id="1" parent="0" />
        <mxCell id="_bm1bGJ0N_UggFg_dRFB-1" value="" style="swimlane;startSize=0;" parent="1" vertex="1">
          <mxGeometry x="140" y="150" width="900" height="570" as="geometry" />
        </mxCell>
        <mxCell id="awUN3hwwkPXGVzJ78fjS-2" value="" style="rounded=0;whiteSpace=wrap;html=1;" vertex="1" parent="_bm1bGJ0N_UggFg_dRFB-1">
          <mxGeometry width="900" height="30" as="geometry" />
        </mxCell>
        <mxCell id="awUN3hwwkPXGVzJ78fjS-3" value="icon &amp;amp; title&amp;nbsp;" style="rounded=0;whiteSpace=wrap;html=1;" vertex="1" parent="_bm1bGJ0N_UggFg_dRFB-1">
          <mxGeometry width="100" height="30" as="geometry" />
        </mxCell>
        <mxCell id="awUN3hwwkPXGVzJ78fjS-4" value="最小化 最大化 关闭" style="rounded=0;whiteSpace=wrap;html=1;" vertex="1" parent="_bm1bGJ0N_UggFg_dRFB-1">
          <mxGeometry x="770" width="130" height="30" as="geometry" />
        </mxCell>
        <mxCell id="awUN3hwwkPXGVzJ78fjS-5" value="" style="rounded=0;whiteSpace=wrap;html=1;" vertex="1" parent="_bm1bGJ0N_UggFg_dRFB-1">
          <mxGeometry y="30" width="900" height="70" as="geometry" />
        </mxCell>
      </root>
    </mxGraphModel>
  </diagram>
</mxfile>
